<?xml version="1.0" encoding="utf-8"?>
<!-- Generator: Adobe Illustrator 27.0.0, SVG Export Plug-In . SVG Version: 6.00 Build 0)  -->
<svg version="1.1" id="Слой_1" xmlns="http://www.w3.org/2000/svg" xmlns:xlink="http://www.w3.org/1999/xlink" x="0px" y="0px"
	 viewBox="0 0 361.2 69.8" style="enable-background:new 0 0 361.2 69.8;" xml:space="preserve">
<style type="text/css">
	.st0{fill:#E30613;}
	.st1{fill:#FFFFFF;}
	.st2{fill-rule:evenodd;clip-rule:evenodd;fill:#FFFFFF;}
	.st3{fill:#575756;}
	.st4{fill:#1D1D1B;}
</style>
<g id="_сетка">
	<g>
		<g>
			<rect y="0.3" class="st0" width="68.1" height="68.1"/>
			<g>
				<path class="st1" d="M34.1,42.5c-4.5,0-8.2-3.7-8.2-8.2s3.7-8.2,8.2-8.2s8.2,3.7,8.2,8.2S38.6,42.5,34.1,42.5z M34.1,24.3
					c-5.5,0-10,4.5-10,10s4.5,10,10,10s10-4.5,10-10S39.6,24.3,34.1,24.3"/>
				<path class="st2" d="M34.1,46.1c-6.5,0-11.8-5.3-11.8-11.8s5.3-11.8,11.8-11.8s11.8,5.3,11.8,11.8S40.6,46.1,34.1,46.1 M37,8.4
					l1.1,1.8c1,1.5,2.9,2.1,4.5,1.2l1.9-1c1.1-0.6,2.3-0.6,3.3,0.1c1.1,0.6,1.7,1.6,1.7,2.9l0.1,2.1c0.1,1.8,1.5,3.2,3.3,3.3
					l2.2,0.1c1.2,0,2.2,0.7,2.8,1.7c0.6,1.1,0.6,2.2,0.1,3.3l-1,1.9c-0.8,1.6-0.3,3.6,1.2,4.5l1.8,1.1c1,0.7,1.6,1.7,1.6,2.9
					s-0.6,2.3-1.6,2.9l-1.8,1.1c-1.5,1-2.1,2.9-1.2,4.5l1,1.9c0.6,1.1,0.5,2.3-0.1,3.3c-0.6,1-1.6,1.7-2.8,1.7L53,49.9
					c-1.8,0.1-3.2,1.5-3.3,3.3l-0.1,2.2c0,1.2-0.7,2.2-1.7,2.8c-1,0.6-2.2,0.6-3.3,0.1l-1.9-1c-1.6-0.8-3.6-0.3-4.5,1.2L37,60.3
					c-0.7,1-1.7,1.6-2.9,1.6s-2.3-0.6-2.9-1.6L30,58.5c-1-1.5-2.9-2.1-4.5-1.2l-1.9,1c-1.1,0.6-2.3,0.5-3.3-0.1s-1.7-1.6-1.7-2.8
					l-0.1-2.2c-0.1-1.8-1.5-3.2-3.3-3.3L13,49.8c-1.2,0-2.2-0.7-2.9-1.7c-0.6-1-0.6-2.2-0.1-3.3l1-1.9c0.9-1.6,0.3-3.6-1.2-4.5
					l-1.8-1.1c-1-0.7-1.6-1.7-1.6-2.9s0.6-2.3,1.6-2.9l1.8-1.1c1.5-1,2.1-2.9,1.2-4.5l-1-1.9c-0.6-1.1-0.6-2.3,0.1-3.3
					c0.6-1,1.6-1.7,2.9-1.7l2.1-0.1c1.8-0.1,3.2-1.5,3.3-3.3l0.1-2.1c0-1.2,0.7-2.2,1.7-2.9s2.2-0.6,3.3-0.1l1.9,1
					c1.6,0.9,3.6,0.3,4.5-1.2l1.1-1.8c0.6-1,1.7-1.6,2.9-1.6S36.3,7.3,37,8.4z"/>
			</g>
		</g>
		<g>
			<path class="st3" d="M80.1,50.2l3.8,4.3h-1.3l-3.7-4.2l3.5-3.9h1.2L80.1,50.2z M77.7,46.4h1v8.1h-1V46.4z"/>
			<path class="st3" d="M87.9,53.6c1.8,0,3.1-1.4,3.1-3.2s-1.3-3.2-3.1-3.2s-3.1,1.3-3.1,3.2S86.2,53.6,87.9,53.6z M87.9,46.2
				c2.3,0,4.1,1.7,4.1,4.2s-1.8,4.2-4.1,4.2s-4.1-1.7-4.1-4.2S85.5,46.2,87.9,46.2z"/>
			<path class="st3" d="M93.4,46.4h1l3,4.1l2.9-4.1h0.9v8.1h-1v-6.5l-2.9,4h-0.2l-2.9-4v6.5h-1L93.4,46.4L93.4,46.4z"/>
			<path class="st3" d="M108.7,47.3h-4.4v7.2h-1v-8.1h6.3v8.1h-1C108.7,54.4,108.7,47.3,108.7,47.3z"/>
			<path class="st3" d="M116.7,47.3h-2.9l-0.1,1.5c-0.5,5.1-1.6,5.8-2.8,5.6v-1c0.6,0.1,1.6-0.2,1.9-5.5l0.1-1.6h4.8v8.1h-1
				L116.7,47.3L116.7,47.3z"/>
			<path class="st3" d="M119.8,46.4h4.6v0.9h-3.6v2.6h3.2v0.9h-3.2v2.7h3.7v0.9h-4.7L119.8,46.4L119.8,46.4z"/>
			<path class="st3" d="M128.3,50.2l3.8,4.3h-1.3l-3.7-4.2l3.5-3.9h1.2L128.3,50.2L128.3,50.2z M126,46.4h1v8.1h-1V46.4z"/>
			<path class="st3" d="M138.7,53.7c-0.5,0.5-1.6,0.9-2.6,0.9c-2.4,0-4.1-1.6-4.1-4.2c0-2.3,1.5-4.2,4-4.2c1,0,1.9,0.3,2.5,0.8
				l-0.4,0.7c-0.5-0.4-1.1-0.6-2-0.6c-1.8,0-3,1.3-3,3.2s1.3,3.2,3.1,3.2c0.8,0,1.5-0.3,2.1-0.7L138.7,53.7L138.7,53.7z"/>
			<path class="st3" d="M145.3,50.8h-4.4v3.7h-1v-8.1h1v3.5h4.4v-3.5h1v8.1h-1C145.3,54.4,145.3,50.8,145.3,50.8z"/>
			<path class="st3" d="M149.7,51.1h2.9l-1.4-3.5L149.7,51.1z M150.8,46.3h0.8l3.5,8.1H154l-1-2.5h-3.7l-1,2.5h-1L150.8,46.3
				L150.8,46.3z"/>
			<path class="st3" d="M159.9,50.5v-3.2c-0.3,0-0.8,0-1.1,0c-1.3,0-1.9,0.7-1.9,1.7c0,0.8,0.7,1.5,1.4,1.6L159.9,50.5L159.9,50.5z
				 M159.9,51.4h-1.5l-2.1,3h-1.1l2.2-3.2c-0.8-0.3-1.6-1.1-1.6-2.3c0-1.5,1-2.7,3.1-2.7c0.5,0,1.4,0,1.9,0v8.1h-1L159.9,51.4
				L159.9,51.4z"/>
			<path class="st3" d="M166.7,51.1h2.9l-1.4-3.5L166.7,51.1z M167.7,46.3h0.8l3.5,8.1H171l-1-2.5h-3.7l-1,2.5h-1L167.7,46.3
				L167.7,46.3z"/>
			<path class="st3" d="M174.1,47.3v2.6h1.3c0.9,0,1.6-0.5,1.6-1.3s-0.6-1.3-1.6-1.3C174.8,47.2,174.3,47.3,174.1,47.3L174.1,47.3z
				 M173.1,46.4c0.4,0,1.5,0,2.2,0c1.9,0,2.6,0.9,2.6,2c0,1-0.6,1.6-1.4,1.9v0c1,0.2,1.7,0.8,1.7,1.9c0,1.6-1.3,2.3-2.9,2.3
				c-0.7,0-1.7,0-2.2,0L173.1,46.4L173.1,46.4z M174.1,50.8v2.8c0.3,0,0.8,0,1.2,0c1.2,0,1.9-0.5,1.9-1.5c0-0.8-0.7-1.3-1.8-1.3
				H174.1z"/>
			<path class="st3" d="M178.7,46.4h6.6v0.9h-2.8v7.2h-1v-7.2h-2.8V46.4z"/>
			<path class="st3" d="M189.4,53.6c1.9,0,3.1-1.4,3.1-3.2s-1.4-3.2-3.1-3.2s-3.1,1.3-3.1,3.2S187.7,53.6,189.4,53.6z M189.4,46.2
				c2.3,0,4.1,1.7,4.1,4.2s-1.8,4.2-4.1,4.2s-4.1-1.7-4.1-4.2S187,46.2,189.4,46.2z"/>
			<path class="st3" d="M194.9,46.4h1l3,4.1l2.9-4.1h0.9v8.1h-1v-6.5l-2.9,4h-0.1l-2.9-4v6.5h-1L194.9,46.4L194.9,46.4z"/>
			<path class="st3" d="M206.2,51.1h2.9l-1.4-3.5L206.2,51.1L206.2,51.1z M207.3,46.3h0.8l3.5,8.1h-1.1l-1-2.5h-3.7l-1,2.5h-1
				L207.3,46.3L207.3,46.3z"/>
			<path class="st3" d="M210.7,46.4h6.6v0.9h-2.8v7.2h-1v-7.2h-2.8V46.4z"/>
			<path class="st3" d="M218.3,54.4v-8.1h1v6.5l4.9-6.5h0.9v8.1h-1V48l-4.9,6.5C219.2,54.4,218.3,54.4,218.3,54.4z"/>
			<path class="st3" d="M226.4,53.3l0.5-0.7c0.5,0.6,1.4,1,2,1c1.1,0,1.8-0.5,1.8-1.5c0-0.8-0.6-1.3-1.6-1.3h-0.9v-0.9h0.9
				c0.7,0,1.3-0.5,1.3-1.4c0-0.9-0.6-1.3-1.5-1.3s-1.4,0.3-1.8,0.9l-0.6-0.7c0.5-0.7,1.5-1.2,2.5-1.2c1.4,0,2.3,0.8,2.3,2.2
				c0,0.7-0.4,1.4-1.2,1.8v0c1,0.2,1.5,1,1.5,1.9c0,1.5-1.3,2.4-2.8,2.4C227.7,54.5,226.8,53.9,226.4,53.3L226.4,53.3z"/>
			<path class="st3" d="M234.8,51.1h2.9l-1.4-3.5L234.8,51.1z M235.8,46.3h0.8l3.5,8.1h-1.1l-1-2.5h-3.7l-1,2.5h-1L235.8,46.3
				L235.8,46.3z"/>
			<path class="st3" d="M241.2,46.4h1v7.2h4.3v-7.2h1v7.2h1.1v2.4h-0.9v-1.5h-6.5L241.2,46.4L241.2,46.4z"/>
			<path class="st3" d="M249.7,54.4v-8.1h1v6.5l4.9-6.5h0.9v8.1h-1V48l-4.9,6.5C250.6,54.4,249.7,54.4,249.7,54.4z"/>
			<path class="st3" d="M262.3,50.5v-3.2c-0.3,0-0.8,0-1.1,0c-1.3,0-1.9,0.7-1.9,1.7c0,0.8,0.7,1.5,1.4,1.6L262.3,50.5L262.3,50.5z
				 M262.3,51.4h-1.5l-2.1,3h-1.1l2.2-3.2c-0.8-0.3-1.6-1.1-1.6-2.3c0-1.5,1-2.7,3.1-2.7c0.5,0,1.4,0,1.9,0v8.1h-1
				C262.3,54.4,262.3,51.4,262.3,51.4z"/>
			<path class="st3" d="M267.8,54.4v-8.1h1v6.5l4.9-6.5h0.9v8.1h-1V48l-4.9,6.5C268.6,54.4,267.8,54.4,267.8,54.4z"/>
			<path class="st3" d="M280,47.3v3.1c0.4,0,0.8,0.1,1.2,0.1c1.2,0,1.9-0.6,1.9-1.6c0-1-0.6-1.6-1.9-1.6
				C280.9,47.3,280.3,47.3,280,47.3z M279,54.4v-8.1c0.5,0,1.6,0,2.1,0c2.3,0,3,1.2,3,2.5s-0.9,2.5-2.9,2.5c-0.3,0-0.8,0-1.2,0v3.1
				L279,54.4L279,54.4z"/>
			<path class="st3" d="M288.9,53.6c1.9,0,3.1-1.4,3.1-3.2s-1.4-3.2-3.1-3.2s-3.1,1.3-3.1,3.2S287.1,53.6,288.9,53.6z M288.9,46.2
				c2.3,0,4.1,1.7,4.1,4.2s-1.8,4.2-4.1,4.2s-4.1-1.7-4.1-4.2S286.5,46.2,288.9,46.2z"/>
			<path class="st3" d="M295.4,50.5v3c0.4,0,0.7,0,1.1,0c1.3,0,2-0.6,2-1.6c0-0.9-0.6-1.5-1.9-1.5C296.2,50.5,295.8,50.5,295.4,50.5
				L295.4,50.5z M294.4,46.4h4.6v0.9h-3.6v2.3c0.4,0,0.9-0.1,1.2-0.1c1.8,0,2.8,0.9,2.8,2.4c0,1.7-1.2,2.6-3.1,2.6
				c-0.8,0-1.5,0-1.9,0V46.4L294.4,46.4z"/>
			<path class="st3" d="M304.6,53.6c1.9,0,3.1-1.4,3.1-3.2s-1.4-3.2-3.1-3.2s-3.1,1.3-3.1,3.2S302.8,53.6,304.6,53.6z M304.6,46.2
				c2.3,0,4.1,1.7,4.1,4.2s-1.8,4.2-4.1,4.2s-4.1-1.7-4.1-4.2S302.2,46.2,304.6,46.2z"/>
			<path class="st3" d="M308.6,46.4h6.6v0.9h-2.8v7.2h-1v-7.2h-2.8L308.6,46.4L308.6,46.4z"/>
			<path class="st3" d="M316.2,54.4v-8.1h1v6.5l4.9-6.5h0.9v8.1h-1V48l-4.9,6.5C317.1,54.4,316.2,54.4,316.2,54.4z"/>
			<path class="st3" d="M324.3,53.3l0.5-0.7c0.5,0.6,1.4,1,2,1c1,0,1.8-0.5,1.8-1.5c0-0.8-0.6-1.3-1.6-1.3h-0.9v-0.9h0.9
				c0.7,0,1.3-0.5,1.3-1.4c0-0.9-0.6-1.3-1.5-1.3s-1.4,0.3-1.8,0.9l-0.6-0.7c0.5-0.7,1.5-1.2,2.5-1.2c1.4,0,2.3,0.8,2.3,2.2
				c0,0.7-0.4,1.4-1.2,1.8v0c1,0.2,1.5,1,1.5,1.9c0,1.5-1.3,2.4-2.8,2.4C325.7,54.5,324.7,53.9,324.3,53.3L324.3,53.3z"/>
			<path class="st3" d="M332.7,51.1h2.9l-1.5-3.5L332.7,51.1z M333.7,46.3h0.8l3.5,8.1h-1l-1-2.5h-3.7l-1,2.5h-1L333.7,46.3
				L333.7,46.3z"/>
			<path class="st3" d="M339.1,46.4h1v7.2h4.3v-7.2h1v7.2h1.1v2.4h-0.9v-1.5h-6.5L339.1,46.4L339.1,46.4z"/>
			<path class="st3" d="M347.6,54.4v-8.1h1v6.5l4.9-6.5h0.9v8.1h-1V48l-4.9,6.5C348.5,54.4,347.6,54.4,347.6,54.4z"/>
			<path class="st3" d="M360.2,50.5v-3.2c-0.3,0-0.8,0-1.1,0c-1.3,0-1.9,0.7-1.9,1.7c0,0.8,0.7,1.5,1.4,1.6L360.2,50.5L360.2,50.5z
				 M360.2,51.4h-1.5l-2.1,3h-1.1l2.2-3.2c-0.8-0.3-1.6-1.1-1.6-2.3c0-1.5,1-2.7,3.1-2.7c0.5,0,1.4,0,1.9,0v8.1h-1
				C360.2,54.4,360.2,51.4,360.2,51.4z"/>
			<path class="st3" d="M83.8,67.5c-0.5,0.6-1.6,0.9-2.6,0.9c-2.4,0-4.1-1.6-4.1-4.2c0-2.3,1.5-4.2,4-4.2c1,0,1.9,0.3,2.5,0.8
				l-0.4,0.7c-0.5-0.4-1.2-0.6-2-0.6c-1.8,0-3,1.3-3,3.2s1.3,3.2,3.2,3.2c0.8,0,1.5-0.3,2.1-0.7L83.8,67.5L83.8,67.5z"/>
			<path class="st3" d="M87.2,64l3.8,4.3h-1.3l-3.7-4.2l3.5-3.9h1.2L87.2,64z M84.9,60.2h1v8.1h-1C84.9,68.3,84.9,60.2,84.9,60.2z"
				/>
			<path class="st3" d="M97,61.1H94l-0.1,1.5c-0.5,5.1-1.6,5.8-2.8,5.6v-1c0.6,0.1,1.6-0.2,1.9-5.5l0.1-1.6h4.8v8.1h-1L97,61.1
				L97,61.1z"/>
			<path class="st3" d="M101.4,64.9h2.9l-1.4-3.5L101.4,64.9L101.4,64.9z M102.4,60.2h0.8l3.5,8.1h-1.1l-1-2.4H101l-1,2.4h-1
				L102.4,60.2L102.4,60.2z"/>
			<path class="st3" d="M108.6,67.4h4.1v-6.2h-2.8l-0.1,1.4C109.5,65.4,108.9,67,108.6,67.4z M106.6,67.4h0.9
				c0.3-0.4,1.2-2.2,1.3-5.5l0.1-1.6h4.8v7.2h1.1v2.4h-0.9v-1.5h-6.3v1.5h-0.9L106.6,67.4L106.6,67.4z"/>
			<path class="st3" d="M121.8,67.5c-0.5,0.6-1.6,0.9-2.6,0.9c-2.4,0-4.1-1.6-4.1-4.2c0-2.3,1.5-4.2,4-4.2c1,0,1.9,0.3,2.5,0.8
				l-0.4,0.7c-0.5-0.4-1.2-0.6-2-0.6c-1.8,0-3,1.3-3,3.2s1.3,3.2,3.2,3.2c0.8,0,1.5-0.3,2.1-0.7L121.8,67.5L121.8,67.5z"/>
			<path class="st3" d="M125.3,64l3.8,4.3h-1.3l-3.7-4.2l3.5-3.9h1.2L125.3,64z M123,60.2h1v8.1h-1C123,68.3,123,60.2,123,60.2z"/>
			<path class="st3" d="M133.2,67.5c1.9,0,3.1-1.4,3.1-3.2s-1.4-3.2-3.1-3.2s-3.1,1.3-3.1,3.2C130.1,66.1,131.4,67.5,133.2,67.5z
				 M133.2,60.1c2.3,0,4.1,1.7,4.1,4.2c0,2.5-1.8,4.2-4.1,4.2s-4.1-1.7-4.1-4.2S130.8,60.1,133.2,60.1z"/>
			<path class="st3" d="M140.9,58.4c0.2,0.5,0.6,0.8,1.2,0.8c0.6,0,1.1-0.2,1.2-0.8h0.9c-0.1,0.9-1,1.4-2.1,1.4
				c-1.2,0-2-0.6-2.2-1.4H140.9L140.9,58.4z M138.7,68.3v-8.1h1v6.5l4.9-6.5h0.9v8.1h-1v-6.5l-4.9,6.5H138.7z"/>
			<path class="st3" d="M152,68.3v-8.1h1v6.5l4.9-6.5h0.9v8.1h-1v-6.5l-4.9,6.5H152z"/>
			<path class="st3" d="M170.6,61.1h-4.4v7.2h-1v-8.1h6.4v8.1h-1L170.6,61.1L170.6,61.1z"/>
			<path class="st3" d="M174.6,61.1v3.1c0.4,0,0.8,0.1,1.2,0.1c1.2,0,1.9-0.6,1.9-1.6c0-1-0.6-1.6-1.9-1.6
				C175.5,61.1,175,61.1,174.6,61.1L174.6,61.1z M173.6,68.3v-8.1c0.4,0,1.6,0,2.1,0c2.3,0,3,1.2,3,2.5s-0.9,2.5-2.9,2.5
				c-0.3,0-0.8,0-1.2-0.1v3.1C174.6,68.3,173.6,68.3,173.6,68.3z"/>
			<path class="st3" d="M183.5,67.5c1.9,0,3.1-1.4,3.1-3.2s-1.4-3.2-3.1-3.2s-3.1,1.3-3.1,3.2C180.4,66.1,181.8,67.5,183.5,67.5z
				 M183.5,60.1c2.3,0,4.1,1.7,4.1,4.2c0,2.5-1.8,4.2-4.1,4.2s-4.1-1.7-4.1-4.2S181.1,60.1,183.5,60.1z"/>
			<path class="st3" d="M189,68.3v-8.1h1v6.5l4.9-6.5h0.9v8.1h-1v-6.5l-4.9,6.5H189z"/>
			<path class="st3" d="M197.1,67.1l0.5-0.7c0.5,0.6,1.4,1,2,1c1.1,0,1.8-0.5,1.8-1.6c0-0.8-0.6-1.3-1.6-1.3H199v-0.9h0.9
				c0.7,0,1.3-0.5,1.3-1.4c0-0.9-0.6-1.3-1.5-1.3s-1.4,0.3-1.8,0.9l-0.6-0.7c0.5-0.7,1.5-1.2,2.5-1.2c1.4,0,2.3,0.8,2.3,2.2
				c0,0.7-0.4,1.4-1.2,1.8v0c1,0.2,1.5,1,1.5,1.9c0,1.5-1.3,2.4-2.8,2.4C198.5,68.4,197.5,67.8,197.1,67.1L197.1,67.1z"/>
			<path class="st3" d="M205.1,61.1v2.6h1.3c0.9,0,1.6-0.5,1.6-1.3s-0.6-1.3-1.6-1.3C205.9,61.1,205.4,61.1,205.1,61.1L205.1,61.1z
				 M204.1,60.2c0.4,0,1.5,0,2.2,0c1.9,0,2.6,0.9,2.6,2c0,1-0.6,1.6-1.4,1.9v0c1,0.2,1.7,0.8,1.7,1.9c0,1.6-1.3,2.3-2.9,2.3
				c-0.7,0-1.7,0-2.2-0.1L204.1,60.2L204.1,60.2z M205.1,64.6v2.8c0.3,0,0.8,0.1,1.2,0.1c1.2,0,1.9-0.5,1.9-1.5
				c0-0.8-0.7-1.3-1.8-1.3H205.1z"/>
			<path class="st3" d="M214.4,67.5c1.9,0,3.1-1.4,3.1-3.2s-1.4-3.2-3.1-3.2s-3.1,1.3-3.1,3.2C211.3,66.1,212.6,67.5,214.4,67.5z
				 M214.4,60.1c2.3,0,4.1,1.7,4.1,4.2c0,2.5-1.8,4.2-4.1,4.2s-4.1-1.7-4.1-4.2S212,60.1,214.4,60.1z"/>
			<path class="st3" d="M220.4,67.4h4.1v-6.2h-2.8l-0.1,1.4C221.4,65.4,220.7,67,220.4,67.4z M218.5,67.4h0.9
				c0.3-0.4,1.1-2.2,1.3-5.5l0.1-1.6h4.8v7.2h1.1v2.4h-0.9v-1.5h-6.3v1.5h-0.9L218.5,67.4L218.5,67.4z"/>
			<path class="st3" d="M233.7,67.5c-0.5,0.6-1.6,0.9-2.6,0.9c-2.4,0-4.1-1.6-4.1-4.2c0-2.3,1.5-4.2,4-4.2c1,0,1.9,0.3,2.5,0.8
				l-0.4,0.7c-0.5-0.4-1.1-0.6-2-0.6c-1.8,0-3,1.3-3,3.2s1.3,3.2,3.1,3.2c0.8,0,1.5-0.3,2.1-0.7L233.7,67.5L233.7,67.5z"/>
			<path class="st3" d="M233.8,60.2h6.6v0.9h-2.8v7.2h-1v-7.2h-2.8C233.8,61.1,233.8,60.2,233.8,60.2z"/>
			<path class="st3" d="M242.3,61.1v2.6h1.3c0.9,0,1.6-0.5,1.6-1.3s-0.6-1.3-1.6-1.3C243.1,61.1,242.6,61.1,242.3,61.1L242.3,61.1z
				 M241.4,60.2c0.4,0,1.5,0,2.2,0c1.9,0,2.6,0.9,2.6,2c0,1-0.6,1.6-1.4,1.9v0c1,0.2,1.7,0.8,1.7,1.9c0,1.6-1.3,2.3-2.9,2.3
				c-0.7,0-1.7,0-2.2-0.1L241.4,60.2L241.4,60.2z M242.3,64.6v2.8c0.3,0,0.8,0.1,1.2,0.1c1.2,0,1.9-0.5,1.9-1.5
				c0-0.8-0.7-1.3-1.8-1.3H242.3z"/>
			<path class="st3" d="M248.1,60.2h4.6v0.9h-3.6v2.6h3.2v0.9h-3.2v2.7h3.7v0.9h-4.7L248.1,60.2L248.1,60.2z"/>
			<path class="st3" d="M259.8,64.6h-4.4v3.7h-1v-8.1h1v3.5h4.4v-3.5h1v8.1h-1V64.6z"/>
			<path class="st3" d="M268.2,64.6h-4.4v3.7h-1v-8.1h1v3.5h4.4v-3.5h1v8.1h-1V64.6z"/>
			<path class="st3" d="M274.8,67.5c1.9,0,3.1-1.4,3.1-3.2s-1.4-3.2-3.1-3.2s-3.1,1.3-3.1,3.2C271.7,66.1,273,67.5,274.8,67.5z
				 M274.8,60.1c2.3,0,4.1,1.7,4.1,4.2c0,2.5-1.8,4.2-4.1,4.2s-4.1-1.7-4.1-4.2S272.4,60.1,274.8,60.1z"/>
			<path class="st3" d="M282.5,58.4c0.2,0.5,0.6,0.8,1.2,0.8c0.6,0,1.1-0.2,1.2-0.8h0.9c-0.1,0.9-1,1.4-2.1,1.4
				c-1.2,0-2-0.6-2.2-1.4H282.5L282.5,58.4z M280.3,68.3v-8.1h1v6.5l4.9-6.5h0.9v8.1h-1v-6.5l-4.9,6.5H280.3z"/>
			<path class="st3" d="M298.5,61.1h-2.9l-0.1,1.5c-0.5,5.1-1.6,5.8-2.8,5.6v-1c0.6,0.1,1.6-0.2,1.9-5.5l0.1-1.6h4.8v8.1h-1
				L298.5,61.1L298.5,61.1z"/>
			<path class="st3" d="M305,67.5c1.9,0,3.1-1.4,3.1-3.2S306.7,61,305,61s-3.1,1.3-3.1,3.2C301.9,66.1,303.3,67.5,305,67.5z
				 M305,60.1c2.3,0,4.1,1.7,4.1,4.2c0,2.5-1.8,4.2-4.1,4.2s-4.1-1.7-4.1-4.2S302.6,60.1,305,60.1z"/>
			<path class="st3" d="M310.5,60.2h4.5v0.9h-3.5v7.2h-1V60.2z"/>
			<path class="st3" d="M316,68.3v-8.1h1v6.5l4.9-6.5h0.9v8.1h-1v-6.5l-4.9,6.5H316z"/>
			<path class="st3" d="M330.8,67.5c-0.5,0.6-1.5,0.9-2.5,0.9c-2.4,0-4.1-1.6-4.1-4.2c0-2.3,1.5-4.2,4-4.2c1,0,1.9,0.3,2.5,0.8
				l-0.5,0.7c-0.5-0.4-1.1-0.6-2-0.6c-1.8,0-3,1.3-3,3.2s1.3,3.2,3.1,3.2c0.8,0,1.5-0.3,2.1-0.7L330.8,67.5L330.8,67.5z"/>
			<path class="st3" d="M330.9,60.2h6.6v0.9h-2.8v7.2h-1v-7.2h-2.8L330.9,60.2L330.9,60.2z"/>
			<path class="st3" d="M338.5,68.3v-8.1h1v6.5l4.9-6.5h0.9v8.1h-1v-6.5l-4.9,6.5H338.5z"/>
			<path class="st3" d="M349.6,64l3.8,4.3h-1.3l-3.7-4.2l3.5-3.9h1.2L349.6,64z M347.3,60.2h1v8.1h-1
				C347.3,68.3,347.3,60.2,347.3,60.2z"/>
			<path class="st3" d="M354.4,68.3v-8.1h1v6.5l4.9-6.5h0.9v8.1h-1v-6.5l-4.9,6.5H354.4z"/>
		</g>
		<g>
			<path class="st4" d="M88.8,20.3c0,7.2,2.2,10.5,9,10.5c3.4,0,5.9-1.2,7.1-3c0.9-1.5,2.1-2.4,3.8-2.4h4.9c1.2,0,2,0.9,2,2
				c0,7.5-7,11.2-18.6,11.2c-12.8,0-19.9-6.2-19.9-18.2S84.2,2,96.6,2c11.6,0,18.6,3.7,18.6,11.2c0,1.1-0.9,2-2,2h-4.9
				c-1.7,0-2.8-0.9-3.8-2.4c-1.2-1.8-3.6-3-7.1-3C91.1,9.7,88.8,12.9,88.8,20.3"/>
			<path class="st4" d="M158.7,20.2c0,12.1-7.1,18.3-19.9,18.3s-19.9-6.2-19.9-18.3S126.1,2,138.8,2S158.7,8.1,158.7,20.2
				 M147.3,20.2c0-7.8-2.8-10.9-8.5-10.9s-8.5,3.2-8.5,10.9s2.8,11,8.5,11S147.3,28,147.3,20.2z"/>
			<path class="st4" d="M188.9,17.4c0-5.5-2.1-7.7-5.7-7.7c-2.8,0-4.9,1.8-7,4.6v21.5c0,1.1-0.9,2-2,2h-7.4c-1.1,0-2-0.9-2-2V4.6
				c0-1.1,0.9-2,2-2h7.4c1.1,0,2,0.9,2,2v2c2.6-2.5,5.5-4.7,10.2-4.7c5.4,0,9,2.1,11.6,6.2c3.8-3.8,7.9-6.2,12.5-6.2
				c8.2,0,13.9,4.5,13.9,15.5v18.4c0,1.1-0.9,2-2,2H215c-1.1,0-2-0.9-2-2V17.4c0-5.5-2.1-7.7-5.7-7.7c-2.2,0-4.9,1.8-7.2,4.9
				c0.1,0.9,0.2,1.8,0.2,2.8v18.4c0,1.1-0.9,2-2,2h-7.4c-1.1,0-2-0.9-2-2L188.9,17.4L188.9,17.4z"/>
			<path class="st4" d="M266.4,38.5c-9.4,0-14.1-3.8-14.1-11.9V1.6c0-0.9,0.9-1.6,2-1.6h7.3c1.1,0,2,0.7,2,1.6v8.8h9.2
				c1.1,0,2,0.7,2,1.6v3.1c0,0.9-0.9,1.6-2,1.6h-9.2v9.7c0,3.7,2.4,5.6,5.8,5.6c1.8,0,3-0.3,4.5-0.3h1.2c1.1,0,2,0.7,2,1.6v2.8
				c0,0.8-0.9,1.5-2,1.6C273.1,38.3,269.4,38.5,266.4,38.5"/>
			<path class="st4" d="M294.4,11.4c-0.9,1.1-2.1,1.7-3.8,1.7h-4.9c-1.1,0-2-0.9-2-2c0-6.8,7-9.2,17.9-9.2c9.7,0,17.3,3.9,17.3,14
				v19.9c0,1.1-0.9,2-2,2h-6.3c-1.1,0-2-0.8-2-2v-1c-3,2.1-6.7,3.6-11.9,3.6c-8.8,0-15.6-3.9-15.6-11.3S287.8,16,296.6,16h10.9
				c0-5.1-2.2-6.7-6.7-6.7C298.1,9.3,295.6,10.1,294.4,11.4 M307.6,28.3v-5h-10.1c-3.2,0-5,1.7-5,3.9c0,2.3,1.8,4,5.3,4
				C301.8,31.2,305.2,29.7,307.6,28.3L307.6,28.3z"/>
			<path class="st4" d="M343.1,38.5c-11,0-18.1-2.4-18.1-9.2c0-1.1,0.9-2,2-2h4.9c1.7,0,2.9,0.7,3.8,1.7c1.1,1.4,3.6,2.2,6.5,2.2
				c5.7,0,7.5-1.2,7.5-3.1c0-5.5-24.9-2.4-24.9-15.7C325,4.9,332.6,2,342.1,2c11,0,18,2.4,18,9.2c0,1.1-0.9,2-2,2h-4.9
				c-1.7,0-2.9-0.7-3.8-1.7c-1.1-1.4-3.6-2.2-6.5-2.2c-4.6,0-6.5,1.2-6.5,3.1c0,5.5,24.9,2.3,24.9,15.7
				C361.2,35.5,353.6,38.5,343.1,38.5"/>
			<path class="st4" d="M234.4,38.2c-1.1,0-2-0.6-2-1.5V14.5c0-0.8,0.9-1.4,2-1.4h7.4c1.1,0,2,0.6,2,1.4v22.3c0,0.8-0.9,1.5-2,1.5
				L234.4,38.2L234.4,38.2z"/>
			<path class="st4" d="M234.1,9.3c-1.1,0-2-1.2-2-1.5V1.7c0-0.3,0.9-1.4,2-1.4h7.4c1.1,0,2,1.1,2,1.4v6.1c0,0.3-0.9,1.5-2,1.5
				H234.1z"/>
		</g>
	</g>
</g>
</svg>
