<?xml version="1.0" encoding="UTF-8" standalone="no"?>
<svg
   xmlns:svg="http://www.w3.org/2000/svg"
   xmlns="http://www.w3.org/2000/svg"
   width="817.79132"
   height="96.578056"
   viewBox="0 0 216.37395 25.552945"
   version="1.1"
   id="svg5634">
  <defs
     id="defs5628" />
  <g
     id="layer1"
     transform="translate(0.08578617,-114.89019)">
    <path
       id="path1056"
       style="fill:#203287;fill-opacity:1;fill-rule:nonzero;stroke:none;stroke-width:1.26209819"
       d="m 202.69261,132.85192 6.98697,0.001 -3.4796,-9.00507 c -0.25999,0.62852 -2.19984,5.67944 -3.50737,9.00381 m 5.31091,-11.15064 6.96173,17.01308 h -2.90535 l -1.65082,-4.00463 h -8.47626 l -1.57383,4.00211 h -2.87759 l 7.09426,-17.01182 z m -16.23626,17.011 -2.72361,-0.001 -1.98781,-12.90242 -5.49643,12.90242 -2.48633,-0.001 -5.59741,-12.90242 -1.8881,12.90242 -2.74885,-10e-4 2.8839,-17.01182 h 2.72234 l 5.88516,14.03074 5.99371,-14.02948 2.75011,0.001 z m -39.47212,-15.00194 -0.001,7.35551 c 1.67607,-0.0252 6.64874,-0.34077 6.64874,-3.97687 0,-2.09509 -1.35928,-3.50864 -4.10561,-3.50864 -0.75978,0 -1.70131,0.0783 -2.54186,0.13 m -2.64284,-2.01683 c 0,0 2.27809,-0.36475 5.1847,-0.36475 4.63064,10e-4 6.95795,2.35634 6.95795,5.4712 0,2.59108 -1.6483,4.10939 -3.5831,5.02441 l 5.72614,6.88348 h -3.55653 l -4.7884,-6.02021 c -1.33404,0.28902 -2.56585,0.36727 -3.29913,0.39252 l -10e-4,5.62517 h -2.64283 z m -6.53487,17.01197 -12.27138,-0.002 0.001,-17.01182 11.62014,0.001 v 2.22633 l -8.76653,-10e-4 -0.002,4.81491 7.14347,0.001 v 2.14557 h -7.14347 v 5.62643 l 9.41904,0.002 z m -42.54507,-0.007 -11.987414,-0.001 0.0024,-17.01182 h 2.854865 l -0.0038,14.89275 9.133799,0.001 z m -30.71459,-5.86481 h 6.985712 l -3.475818,-9.00381 c -0.265041,0.62853 -2.201101,5.67818 -3.509894,9.00381 m 5.313431,-11.1519 6.960471,17.01561 h -2.90535 l -1.648296,-4.00716 -8.480042,-0.001 -1.572574,4.0059 h -2.87632 l 7.092992,-17.01309 z m -19.38229,14.34289 v -7.48551 h 2.409343 l -0.0024,8.71479 c 0,0 -2.380318,1.85655 -6.646209,1.85655 -6.046713,0 -9.629809,-3.42912 -9.629809,-8.87255 0.0013,-5.36392 4.028614,-8.92304 9.708057,-8.92304 3.589409,0 5.863706,0.8393 5.863706,0.8393 v 2.14431 c 0,0 -2.617589,-0.78377 -5.365178,-0.78377 -4.633161,-0.001 -7.3025,2.71856 -7.303762,6.7232 0,4.21414 2.931856,6.59572 6.883485,6.59698 1.700045,0 3.084568,-0.39251 4.082888,-0.81026" />
    <path
       id="path1060"
       style="fill:#0093bd;fill-opacity:1;fill-rule:nonzero;stroke:none;stroke-width:1.26209819"
       d="m 10.725586,131.47314 c -0.880944,-1.5183 -2.5191474,-2.5406 -4.3996737,-2.5406 -2.8094304,0 -5.0887797,2.27682 -5.0887797,5.08752 -0.00253,2.80943 2.275563,5.08878 5.0862556,5.09004 1.8830504,0 3.5212538,-1.0223 4.4009358,-2.54187 0.882207,-1.49937 2.650406,-2.49643 4.52967,-2.4939 1.878003,0 3.591932,0.99453 4.474138,2.49516 0.879683,1.51831 2.521673,2.54187 4.404723,2.54187 2.809431,0.001 5.086256,-2.27683 5.087518,-5.08878 0,-2.80817 -2.276826,-5.08752 -5.086256,-5.08752 -1.881788,0 -3.523778,1.01978 -4.405985,2.53934 -0.879682,1.50064 -2.596135,2.49643 -4.474138,2.49643 -1.879264,0 -3.646201,-0.99579 -4.528408,-2.49769 m 9.61845,-10.16998 c 0,2.81069 -2.281873,5.08625 -5.088779,5.08625 -2.809431,-0.001 -5.086256,-2.27809 -5.086256,-5.08878 0,-2.80943 2.278087,-5.08752 5.086256,-5.08752 2.808168,0 5.088779,2.27935 5.088779,5.09005 m 100.492794,8.94577 c 10e-4,-3.95163 -2.77661,-6.59446 -7.09172,-6.59572 -1.01852,0 -2.22508,0.0782 -3.29913,0.15776 v 12.79641 c 0.94153,0.0795 2.06605,0.15776 3.32437,0.15776 4.15987,0.001 7.06648,-2.56458 7.06648,-6.51621 m -13.24066,-8.56081 c 0,0 2.61506,-0.36348 6.14894,-0.36348 5.91671,0 10.07406,3.42912 10.0728,8.92429 0,5.44343 -4.02735,8.87255 -10.04756,8.87129 -3.2966,0 -6.17545,-0.41776 -6.17545,-0.41776 z" />
  </g>
</svg>
