<svg xmlns="http://www.w3.org/2000/svg" width="1206.36" height="392.48" viewBox="0 0 1206.36 392.48">
  <defs>
    <style>
      .cls-1 {
        fill: #0079c2;
      }
    </style>
  </defs>
  <g>
    <g>
      <g>
        <path class="cls-1" d="M871.89,242.01h33.15v127.51h-25.5v-79.97h-.91l-13.12,79.97h-20.4l-13.11-79.97h-.91v79.97h-25.5v-127.51h33.15l16.58,89.62,16.58-89.62h-.01Z"/>
        <path class="cls-1" d="M919.99,242.01h51.74v14.03h-26.23v39.53h26.23v14.03h-26.23v45.9h27.32v14.03h-52.83v-127.51h0Z"/>
        <path class="cls-1" d="M1048.78,355.5h5.1v36.98h-22.95v-22.95h-26.78v22.95h-22.95v-36.98h1.28c6.92,0,7.28-8.01,7.28-12.75v-100.74h59.02v113.49Zm-33.51-10.2c0,5.1-1.09,8.02-3.46,10.2h11.48v-99.46h-8.02v89.26h0Z"/>
        <path class="cls-1" d="M1065.55,242.01h25.5v63.58h.91l10.56-63.58h25.5v127.51h-25.5v-63.57h-.91l-10.57,63.57h-25.5v-127.51h0Z"/>
        <path class="cls-1" d="M1152.99,242.01h40.07l13.3,127.51h-24.96l-2.37-33.88h-12.02l-2.37,33.88h-24.95l13.3-127.51h0Zm25.14,79.6l-4.37-63.94h-1.46l-4.37,63.94h10.2Z"/>
        <path class="cls-1" d="M237.44,241.73v127.87h25.58v-112.01h23.22v-15.86h-48.8Z"/>
        <path class="cls-1" d="M319.53,257.59h1.47l4.39,64.01h-10.23l4.38-64.01h-.01Zm-19.36-15.86l-13.32,127.87h25.01l2.38-33.94h12.06l2.37,33.94h25.04l-13.34-127.87h-40.2Z"/>
        <path class="cls-1" d="M390.33,324.87v24.09c0,3.28,2.57,4.21,4.02,4.21,2.39,0,4.03-2.01,4.03-4.21v-29.76c0-4.02-.75-8.4-10.25-8.4h-10.41v-14.08h10.77c7.32,0,9.9-1.64,9.9-9.5v-25.45c0-2.19-1.65-4.21-4.03-4.21-1.45,0-4.02,.93-4.02,4.21v20.87h-25.57v-18.1c0-8.94,1.09-22.83,18.99-22.83h21.22c17.92,0,19.01,13.9,19.01,22.83v20.47c0,13.88-9.68,17.73-17.36,17.36v1.28c17.18-.37,17.36,12.79,17.36,17.36v25.77c0,8.95-1.09,22.85-19.01,22.85h-21.22c-17.9,0-18.99-13.9-18.99-22.85v-21.93h25.57v.02h0Z"/>
        <path class="cls-1" d="M440.81,241.73h59.22v127.93h-25.6v-112.08h-8.04v112.08h-25.58v-127.93h0Z"/>
        <path class="cls-1" d="M542.44,312.09v-54.51h3.29c2.75,0,4.75,2.38,4.75,6.4v41.7c0,4.02-2,6.41-4.75,6.41h-3.29Zm14.61-70.36h-40.19v127.93h25.58v-43.51h14.61c17.92,0,18.99-13.89,18.99-22.84v-38.75c0-8.94-1.08-22.83-18.99-22.83Z"/>
        <path class="cls-1" d="M626.52,348.97c0,2.19-1.66,4.21-4.03,4.21-1.47,0-4.02-.93-4.02-4.21v-87.18c0-3.28,2.56-4.21,4.02-4.21,2.38,0,4.03,2.02,4.03,4.21v87.18Zm-33.64-2.16c0,8.95,1.09,22.85,19.01,22.85h21.19c17.92,0,19.01-13.9,19.01-22.85v-82.24c0-8.94-1.09-22.83-19.01-22.83h-21.19c-17.92,0-19.01,13.9-19.01,22.83v82.24Z"/>
        <path class="cls-1" d="M735.44,241.73h33.26v127.93h-25.6v-80.23h-.91l-13.15,80.23h-20.47l-13.16-80.23h-.93v80.23h-25.58v-127.93h33.27l16.62,89.91,16.65-89.91h0Z"/>
        <path class="cls-1" d="M204.28,66.77c-7.83-34.31-27.46-62.21-30.17-66.77-4.27,6.41-19.94,31.02-27.9,58.37-8.69,30.45-9.97,57.48-6.96,84.11,2.97,26.62,14.23,53.94,14.23,53.94,5.98,14.36,14.94,29.74,20.77,37.29,8.53-11.11,28.18-44.24,34.31-87.53,3.41-24.06,3.57-45.12-4.27-79.41m-30.18,158.4c-3.84-7.26-9.83-21.08-10.38-42.42-.17-20.64,8.11-38.3,10.52-41.99,2.15,3.69,9.25,19.07,10.1,40.13,.57,20.64-6.26,36.87-10.23,44.28m27.87-100.2c-.29,13.09-1.84,26.89-3.84,35.14,.72-14.22-.99-34.29-4.26-49.95-3.27-15.66-12.54-41.84-19.93-53.94-6.82,11.53-15.24,34.17-19.63,53.8-4.43,19.65-4.56,43.4-4.56,50.53-1.17-6.01-4.11-27.42-3.27-48.96,.69-17.77,4.84-36.01,7.11-44.4,8.69-28.03,18.5-45.97,20.35-48.82,1.85,2.85,14.23,24.91,20.65,48.11,6.4,23.2,7.66,45.39,7.38,58.49Z"/>
        <path class="cls-1" d="M187.4,241.69h-59.55v39.98s.09-.11,.15-.17c14.01-14.03,36.79-14.03,50.82,0,14.03,14.05,14.03,36.81,0,50.84-.04,.06-.14,.09-.19,.16-.06,.08-.15,.14-.21,.2-13.99,13.9-32.27,20.85-50.56,20.85s-36.76-7.01-50.76-21.01c-24.7-24.7-27.65-62.92-8.82-90.85,2.54-3.76,5.47-7.35,8.82-10.68,14-14.01,32.38-21.02,50.76-21.02V113.88C57.23,113.88,0,171.1,0,241.69s57.23,127.84,127.85,127.84c36.8,0,69.96-15.58,93.28-40.47v-87.37h-33.73Z"/>
      </g>
    </g>
  </g>
</svg>