<svg width="194" height="161" viewBox="0 0 194 161" fill="none" xmlns="http://www.w3.org/2000/svg">
<path d="M121.238 107.22C119.907 102.34 118.251 97.5623 116.335 92.9555C118.738 89.3724 121.4 86.0282 124.322 82.9228C126.141 86.7448 127.796 90.6691 129.258 94.6958C126.173 98.5519 123.478 102.783 121.27 107.254M96.9513 105.991C95.1655 101.18 93.0226 96.5386 90.49 92.1365C92.4057 88.2122 94.5811 84.4243 96.9513 80.8071C99.3215 84.4243 101.497 88.2122 103.413 92.1365C100.912 96.5386 98.7371 101.145 96.9513 105.991ZM72.6972 107.22C70.4894 102.749 67.7945 98.5178 64.71 94.6617C66.171 90.635 67.7945 86.7107 69.6452 82.8887C72.5674 86.0282 75.2298 89.3724 77.6325 92.9214C75.6843 97.5282 74.0609 102.306 72.7297 107.185M81.7885 62.6528C84.6132 65.3487 87.2757 68.181 89.7757 71.1499C87.438 74.4258 85.2951 77.8383 83.3145 81.3531C80.8469 78.1795 78.1844 75.1424 75.3272 72.3101C77.3403 68.9659 79.4832 65.7582 81.7885 62.6528ZM96.9513 45.5223C99.7111 48.1499 102.374 50.8798 104.906 53.7463C102.114 56.3739 99.4514 59.138 96.9513 62.0045C94.4187 59.1039 91.7888 56.3398 88.9965 53.7463C91.529 50.8798 94.1915 48.1499 96.9513 45.5223ZM118.608 72.3442C115.751 75.1766 113.088 78.1795 110.621 81.3872C108.64 77.8724 106.497 74.4599 104.159 71.184C106.659 68.2151 109.322 65.3828 112.147 62.6869C114.452 65.7923 116.595 69.0341 118.608 72.3442ZM182.311 92C167.181 92 153.771 99.4733 145.524 110.973C144.615 106.332 143.479 101.794 142.115 97.3234C152.408 86.9154 166.629 80.5 182.311 80.5L193.935 80.4317V69.0341H182.311C165.363 69.0341 149.875 75.2789 137.927 85.6187C136.433 81.9332 134.777 78.3502 132.991 74.8353C146.563 63.9837 163.674 57.5 182.311 57.5H193.935V46.0341H182.311C161.629 46.0341 142.57 52.9955 127.277 64.7344C125.264 61.4585 123.121 58.2849 120.848 55.2136C137.959 42.2122 159.259 34.5 182.311 34.5H193.935V23.0341H182.311C156.499 23.0341 132.732 31.7018 113.64 46.3412C111.108 43.4748 108.445 40.7107 105.685 38.049C126.855 21.4303 153.447 11.5341 182.311 11.5H193.935V0H182.311C150.005 0 120.329 11.3635 96.9513 30.3027C73.5739 11.3635 43.93 0 11.6238 0H0V11.5341H11.6238C40.5208 11.5341 67.0802 21.4303 88.2497 38.049C85.4899 40.7107 82.8274 43.4748 80.2949 46.3412C61.2033 31.7018 37.4363 23 11.6238 23H0V34.5341H11.6238C34.6765 34.5341 55.9759 42.2463 73.0869 55.2478C70.8141 58.319 68.6711 61.4926 66.6581 64.7685C51.3654 53.0297 32.3063 46.0341 11.6238 46.0341H0V57.5341H11.6238C30.2608 57.5341 47.3717 64.0178 60.9436 74.8694C59.1578 78.3843 57.5019 81.9674 56.0084 85.6528C44.0599 75.3131 28.5724 69.0682 11.6238 69.0341H0V80.4659L11.6238 80.5341C27.3386 80.5341 41.5274 86.9837 51.8199 97.3576C50.4562 101.828 49.3198 106.366 48.4107 111.007C40.1312 99.5074 26.7541 92.0341 11.6238 92.0341H0V103.534H11.6238C30.4556 103.534 45.7483 118.958 45.7483 138V160.932L57.1772 161V154.823V137.966C57.1772 127.899 58.3786 118.105 60.5864 108.721C65.6191 117.286 68.5088 127.285 68.5088 137.966L68.4114 160.898H79.9702V146.053V137.966C79.9702 126.91 81.691 116.263 84.873 106.298C88.9965 116.024 91.3018 126.739 91.3018 137.966V160.898H91.4316H102.731V137.966C102.731 126.705 105.004 116.024 109.127 106.298C112.309 116.297 114.03 126.944 114.03 137.966V145.951V160.898H125.589L125.491 137.966C125.491 127.285 128.381 117.286 133.414 108.721C135.621 118.105 136.823 127.899 136.823 137.966V154.892V160.966L148.219 160.898V137.966C148.252 118.924 163.512 103.5 182.376 103.466H194V92H182.376H182.311Z" fill="#1d1d1b"/>
</svg>
